<?xml version="1.0" standalone="no"?>
<!DOCTYPE svg PUBLIC "-//W3C//DTD SVG 20010904//EN"
 "http://www.w3.org/TR/2001/REC-SVG-20010904/DTD/svg10.dtd">
<svg version="1.0" xmlns="http://www.w3.org/2000/svg"
 width="1193.000000pt" height="1193.000000pt" viewBox="0 0 1193.000000 1193.000000"
 preserveAspectRatio="xMidYMid meet">
<metadata>
Created by potrace 1.16, written by Peter Selinger 2001-2019
</metadata>
<g transform="translate(0.000000,1193.000000) scale(0.100000,-0.100000)"
fill="#000000" stroke="none">
<path d="M5550 11919 c-750 -55 -1441 -233 -2105 -542 -1552 -721 -2740 -2103
-3209 -3734 -166 -578 -236 -1075 -236 -1680 0 -665 94 -1259 295 -1868 295
-893 782 -1682 1450 -2350 772 -773 1723 -1312 2766 -1569 358 -88 684 -140
1037 -165 191 -14 642 -14 827 -1 1161 83 2241 483 3160 1171 1185 886 1996
2170 2283 3614 118 592 145 1236 76 1850 -242 2167 -1670 4041 -3704 4860
-574 231 -1189 371 -1830 415 -166 11 -654 11 -810 -1z m825 -20 c519 -35
1025 -136 1517 -305 172 -59 408 -152 454 -179 38 -22 26 -17 -151 55 -503
207 -1056 343 -1650 407 -205 22 -898 25 -1105 5 -473 -46 -903 -135 -1324
-272 -99 -33 -182 -57 -184 -55 -2 2 80 31 182 64 734 240 1483 332 2261 280z
m2614 -812 c868 -515 1583 -1231 2101 -2102 84 -142 260 -474 260 -491 0 -5
-42 72 -94 171 -527 1017 -1295 1835 -2267 2412 -74 44 -158 93 -187 107 -29
14 -52 29 -52 31 0 9 97 -43 239 -128z m-6359 -201 c0 -2 -51 -40 -114 -84
-542 -384 -1045 -894 -1436 -1457 -46 -66 -88 -124 -93 -130 -43 -41 207 308
324 455 344 429 750 815 1192 1132 124 89 127 91 127 84z m2835 -2943 c206
-417 421 -852 478 -967 l103 -208 132 266 131 266 -340 691 c-186 380 -339
695 -339 700 0 5 107 9 263 9 l263 0 209 -424 c116 -234 212 -425 215 -425 3
0 98 190 212 422 l206 422 266 3 c182 1 266 -1 266 -8 0 -6 -153 -321 -341
-699 l-341 -689 128 -261 c70 -143 130 -261 134 -261 4 0 220 432 480 960
l474 960 269 0 c158 0 267 -4 265 -9 -14 -38 -1483 -3001 -1488 -3001 -4 0
-67 123 -140 273 -73 149 -191 388 -261 530 l-128 259 -263 -530 c-145 -292
-267 -529 -272 -528 -5 1 -149 286 -320 634 l-311 631 -502 1 -501 0 179 -371
c98 -204 179 -376 179 -382 0 -16 -259 -541 -264 -536 -2 2 -331 679 -730
1504 l-725 1500 257 3 c141 1 261 1 267 -2 5 -2 138 -270 295 -595 l285 -591
497 0 497 0 -128 263 c-71 144 -200 406 -288 582 -88 176 -163 330 -167 343
l-7 22 266 0 266 0 374 -757z m6024 232 c471 -1184 553 -2475 235 -3703 -44
-171 -162 -547 -169 -540 -2 2 22 85 55 184 137 421 226 851 272 1324 18 182
18 868 0 1050 -65 666 -230 1309 -478 1864 -30 67 -54 123 -53 126 2 12 83
-167 138 -305z m-11054 -39 c-192 -485 -318 -1006 -381 -1576 -21 -195 -30
-775 -15 -991 56 -792 246 -1507 586 -2206 57 -117 101 -213 99 -213 -3 0 -52
96 -109 213 -184 378 -307 714 -410 1112 -313 1210 -237 2492 217 3653 33 84
62 152 64 150 2 -2 -21 -66 -51 -142z m7195 -2198 c169 -87 42 -328 -135 -254
-85 36 -106 163 -38 228 54 52 106 60 173 26z m2195 -83 c232 -117 457 -450
510 -752 34 -193 1 -351 -80 -390 -33 -16 -39 -16 -92 1 -48 15 -70 31 -129
91 l-71 72 -376 -562 c-414 -618 -534 -789 -732 -1035 -633 -789 -1358 -1295
-2148 -1500 -292 -75 -541 -106 -787 -97 -715 27 -1415 307 -2057 822 -439
352 -787 747 -1323 1505 -211 298 -503 708 -523 735 -15 19 -17 17 -76 -47
-139 -151 -260 -146 -306 14 -84 295 119 785 413 996 119 85 233 113 318 77
72 -30 86 -142 30 -253 -19 -37 -41 -91 -50 -121 -23 -77 -21 -218 4 -317 36
-142 220 -479 455 -834 732 -1103 1652 -1807 2632 -2014 627 -132 1236 -41
1874 280 366 185 696 430 1040 774 406 406 752 881 1073 1477 227 420 254 588
136 830 -55 111 -63 163 -35 229 20 48 62 65 151 62 60 -3 84 -9 149 -43z
m-8770 -3235 c414 -607 958 -1151 1565 -1565 63 -43 120 -83 125 -88 38 -37
-210 134 -376 260 -416 314 -828 726 -1142 1142 -126 166 -297 414 -260 376 5
-5 45 -62 88 -125z m9779 -72 c-333 -479 -782 -946 -1264 -1314 -100 -77 -318
-232 -350 -249 -34 -18 10 15 125 95 563 391 1073 894 1457 1436 44 63 82 114
85 114 3 0 -21 -37 -53 -82z m-7069 -2101 c595 -235 1158 -362 1804 -408 216
-15 796 -6 991 15 570 63 1091 189 1576 381 76 30 140 53 142 51 2 -2 -66 -31
-150 -64 -1161 -454 -2443 -530 -3653 -217 -398 103 -734 226 -1112 410 -117
57 -213 106 -213 109 0 2 96 -42 213 -99 116 -57 298 -137 402 -178z"/>
<path d="M7474 5896 c-28 -28 -34 -42 -34 -75 0 -79 49 -131 122 -131 73 0
137 75 122 143 -15 69 -53 97 -130 97 -39 0 -51 -5 -80 -34z m119 3 c12 -7 25
-17 29 -23 13 -19 9 -63 -7 -76 -13 -11 -13 -15 0 -41 18 -34 18 -39 3 -39 -7
0 -21 14 -30 30 -23 41 -58 41 -58 0 0 -20 -5 -30 -15 -30 -12 0 -15 17 -15
95 l0 95 36 0 c19 0 45 -5 57 -11z"/>
</g>
</svg>
