<svg xmlns="http://www.w3.org/2000/svg" width="172.375" height="236.783" viewBox="0 0 172.375 236.783">
  <g id="Laag_1" transform="translate(-82.9 -84.4)">
    <g id="Group_201" data-name="Group 201" transform="translate(82.9 84.4)">
      <rect id="Rectangle_177" data-name="Rectangle 177" width="31.183" height="31.183" transform="translate(63.266 62.365)" fill="#ff0073"/>
      <g id="Group_198" data-name="Group 198" transform="translate(0.901)">
        <path id="Path_108" data-name="Path 108" d="M136.3,219.383h31.183V188.2Z" transform="translate(-105.118 -125.835)" fill="#f5dbec"/>
        <path id="Path_109" data-name="Path 109" d="M115.583,115.583V84.4L84.4,115.583v124.73h31.183V115.583Z" transform="translate(-84.4 -84.4)" fill="#f5dbec"/>
        <path id="Path_110" data-name="Path 110" d="M188.2,240.1v62.365h31.182V240.1Z" transform="translate(-125.835 -146.552)" fill="#f5dbec"/>
      </g>
      <g id="Group_199" data-name="Group 199" transform="translate(110.07 62.365)">
        <path id="Path_111" data-name="Path 111" d="M349.083,292H317.9v31.183Z" transform="translate(-286.778 -229.635)" fill="#f5dbec"/>
        <path id="Path_112" data-name="Path 112" d="M328.4,219.383V188.2H297.222L266.1,219.383v31.183h31.122V219.383Z" transform="translate(-266.1 -188.2)" fill="#f5dbec"/>
      </g>
      <rect id="Rectangle_178" data-name="Rectangle 178" width="31.183" height="31.183" transform="translate(110.07 124.73)" fill="#ff0073"/>
      <g id="Group_200" data-name="Group 200" transform="translate(0 172.135)">
        <path id="Path_113" data-name="Path 113" d="M90.408,379.912a6.689,6.689,0,0,1,4.686-1.8c4.626,0,6.789,3.124,6.789,6.97v10.514H95.876v-9.673a2.386,2.386,0,0,0-2.584-2.644,3.689,3.689,0,0,0-2.884,1.5v10.815H84.4V370.9h6.008Z" transform="translate(-83.499 -370.9)" fill="#f5dbec"/>
        <path id="Path_114" data-name="Path 114" d="M126.732,382.9c7.27,0,9.433,5.648,8.231,10.815H123.908c.661,1.862,2.944,2.583,5.407,2.583a14.49,14.49,0,0,0,4.867-.781v4.446a18.937,18.937,0,0,1-6.249.961c-5.588,0-10.034-3.184-10.034-9.012C117.84,385.3,123.007,382.9,126.732,382.9Zm.12,4.386a2.807,2.807,0,0,0-3,2.884h5.708A2.547,2.547,0,0,0,126.852,387.286Z" transform="translate(-96.871 -375.69)" fill="#f5dbec"/>
        <path id="Path_115" data-name="Path 115" d="M158.832,382.9c7.27,0,9.433,5.648,8.231,10.815H156.008c.661,1.862,2.944,2.583,5.407,2.583a14.49,14.49,0,0,0,4.867-.781v4.446a18.937,18.937,0,0,1-6.249.961c-5.588,0-10.034-3.184-10.034-9.012C149.94,385.3,155.167,382.9,158.832,382.9Zm.18,4.386a2.807,2.807,0,0,0-3,2.884h5.708A2.547,2.547,0,0,0,159.012,387.286Z" transform="translate(-109.685 -375.69)" fill="#f5dbec"/>
        <path id="Path_116" data-name="Path 116" d="M195.456,383.171V389c-2.343-.541-4.867.24-5.948,1.863v9.613H183.5V383.531h5.287v2.283C189.989,384.132,192.152,382.87,195.456,383.171Z" transform="translate(-123.058 -375.78)" fill="#f5dbec"/>
        <path id="Path_117" data-name="Path 117" d="M213.208,380.032a6.758,6.758,0,0,1,5.047-1.923c5.708,0,8.171,4.626,8.171,9.012s-2.523,9.012-8.171,9.012c-3,0-4.927-1.382-5.768-2.824v2.283H207.2V370.9h6.008Zm3.425,3.064a3.812,3.812,0,0,0-3.425,2.1V389.1a3.812,3.812,0,0,0,3.425,2.1c2.523,0,3.6-2.1,3.6-4.086S219.156,383.1,216.633,383.1Z" transform="translate(-132.518 -370.9)" fill="#f5dbec"/>
        <path id="Path_118" data-name="Path 118" d="M251.432,382.9c7.27,0,9.433,5.648,8.231,10.815H248.608c.661,1.862,2.944,2.583,5.407,2.583a14.49,14.49,0,0,0,4.867-.781v4.446a18.937,18.937,0,0,1-6.249.961c-5.588,0-10.034-3.184-10.034-9.012C242.54,385.3,247.707,382.9,251.432,382.9Zm.12,4.386a2.807,2.807,0,0,0-3,2.884h5.708A2.547,2.547,0,0,0,251.552,387.286Z" transform="translate(-146.649 -375.69)" fill="#f5dbec"/>
        <path id="Path_119" data-name="Path 119" d="M283.532,382.9c7.27,0,9.433,5.648,8.231,10.815H280.708c.661,1.862,2.944,2.583,5.407,2.583a14.49,14.49,0,0,0,4.867-.781v4.446a18.937,18.937,0,0,1-6.249.961c-5.588,0-10.034-3.184-10.034-9.012C274.64,385.3,279.867,382.9,283.532,382.9Zm.18,4.386a2.807,2.807,0,0,0-3,2.884h5.708A2.547,2.547,0,0,0,283.712,387.286Z" transform="translate(-159.463 -375.69)" fill="#f5dbec"/>
        <path id="Path_120" data-name="Path 120" d="M316.553,382.9a12.556,12.556,0,0,1,5.227,1.142v5.107a9.067,9.067,0,0,0-4.326-1.141c-2.343,0-4.506,1.021-4.506,3.905,0,2.7,2.1,3.905,4.386,3.905a9.491,9.491,0,0,0,4.566-1.142v5.107a14.822,14.822,0,0,1-5.828,1.141c-4.746,0-9.373-2.644-9.373-8.652C306.76,385.6,311.687,382.9,316.553,382.9Z" transform="translate(-172.237 -375.69)" fill="#f5dbec"/>
        <path id="Path_121" data-name="Path 121" d="M344.27,389.165h-1.262v6.429H337V370.9h6.008v13.7h1.322l3.725-5.948h6.729L349.257,387l5.828,8.592h-6.669Z" transform="translate(-184.332 -370.9)" fill="#f5dbec"/>
        <path id="Path_122" data-name="Path 122" d="M92.753,435.6a12.556,12.556,0,0,1,5.227,1.142v5.107a9.066,9.066,0,0,0-4.326-1.142c-2.343,0-4.506,1.021-4.506,3.905,0,2.7,2.1,3.905,4.386,3.905a9.491,9.491,0,0,0,4.566-1.141v5.107a14.822,14.822,0,0,1-5.828,1.141c-4.746,0-9.373-2.644-9.373-8.652C82.96,438.3,87.887,435.6,92.753,435.6Z" transform="translate(-82.9 -396.727)" fill="#f5dbec"/>
        <path id="Path_123" data-name="Path 123" d="M121.253,435.6c5.107,0,9.493,3,9.493,9.012s-4.446,9.012-9.493,9.012c-5.107,0-9.553-3-9.553-9.012C111.76,438.6,116.206,435.6,121.253,435.6Zm0,5.347c-2.463,0-3.365,1.8-3.365,3.725s.9,3.725,3.365,3.725,3.365-1.8,3.365-3.725C124.618,442.69,123.716,440.947,121.253,440.947Z" transform="translate(-94.396 -396.727)" fill="#f5dbec"/>
        <path id="Path_124" data-name="Path 124" d="M154.108,447.575H148.1V421.8h6.008Z" transform="translate(-108.927 -391.218)" fill="#f5dbec"/>
        <path id="Path_125" data-name="Path 125" d="M170.208,447.575H164.2V421.8h6.008Z" transform="translate(-115.353 -391.218)" fill="#f5dbec"/>
        <path id="Path_126" data-name="Path 126" d="M187.732,435.6c7.27,0,9.433,5.648,8.231,10.815H184.908c.661,1.863,2.944,2.583,5.407,2.583a14.491,14.491,0,0,0,4.867-.781v4.446a18.935,18.935,0,0,1-6.248.961c-5.588,0-10.034-3.184-10.034-9.012C178.84,438,184.067,435.6,187.732,435.6Zm.18,4.386a2.807,2.807,0,0,0-3,2.884h5.708A2.581,2.581,0,0,0,187.912,439.986Z" transform="translate(-121.221 -396.727)" fill="#f5dbec"/>
        <path id="Path_127" data-name="Path 127" d="M219.131,435.6c3,0,4.927,1.382,5.768,2.824v-2.283h5.287v16.222c0,6.789-4.927,9.012-10.034,9.012a17.747,17.747,0,0,1-7.33-1.562v-5.107a12.645,12.645,0,0,0,6.489,1.742c2.7,0,4.807-.781,4.807-3.725V451.7a6.758,6.758,0,0,1-5.047,1.923c-5.708,0-8.171-4.626-8.171-9.012C210.96,440.226,213.484,435.6,219.131,435.6Zm1.622,4.987c-2.523,0-3.6,2.1-3.6,4.086s1.081,4.086,3.6,4.086a3.812,3.812,0,0,0,3.425-2.1V442.75A3.755,3.755,0,0,0,220.753,440.587Z" transform="translate(-133.995 -396.727)" fill="#f5dbec"/>
        <path id="Path_128" data-name="Path 128" d="M256.532,435.6c7.27,0,9.433,5.648,8.231,10.815H253.708c.661,1.863,2.944,2.583,5.407,2.583a14.492,14.492,0,0,0,4.867-.781v4.446a18.935,18.935,0,0,1-6.249.961c-5.588,0-10.034-3.184-10.034-9.012C247.64,438,252.807,435.6,256.532,435.6Zm.12,4.386a2.807,2.807,0,0,0-3,2.884h5.708A2.547,2.547,0,0,0,256.652,439.986Z" transform="translate(-148.685 -396.727)" fill="#f5dbec"/>
      </g>
    </g>
  </g>
</svg>
