<?xml version="1.0" standalone="no"?>
<!DOCTYPE svg PUBLIC "-//W3C//DTD SVG 20010904//EN"
 "http://www.w3.org/TR/2001/REC-SVG-20010904/DTD/svg10.dtd">
<svg version="1.0" xmlns="http://www.w3.org/2000/svg"
 width="2375.000000pt" height="326.000000pt" viewBox="0 0 2375.000000 326.000000"
 preserveAspectRatio="xMidYMid meet">
<metadata>
Created by potrace 1.16, written by Peter Selinger 2001-2019
</metadata>
<g transform="translate(0.000000,326.000000) scale(0.100000,-0.100000)"
fill="#000000" stroke="none">
<path d="M16475 3135 c-355 -58 -656 -205 -885 -435 -253 -252 -388 -553 -422
-942 -30 -352 57 -711 240 -988 243 -367 634 -596 1127 -661 130 -17 444 -6
560 19 318 69 581 233 786 490 66 82 173 256 167 272 -2 8 -421 213 -605 295
l-52 23 -27 -54 c-86 -171 -278 -317 -472 -360 -89 -20 -252 -15 -347 11 -278
76 -494 299 -571 590 -29 109 -27 372 4 479 67 234 212 410 417 512 118 58
186 75 325 81 136 6 203 -7 325 -66 136 -66 256 -180 319 -305 l28 -54 131 62
c294 140 522 250 526 253 9 7 -37 94 -102 190 -202 304 -487 496 -857 578
-106 24 -491 30 -615 10z"/>
<path d="M22275 3143 c-366 -33 -690 -207 -854 -457 -98 -151 -141 -298 -141
-486 0 -350 160 -599 485 -755 156 -74 317 -121 688 -200 315 -67 418 -105
465 -175 19 -28 23 -44 19 -83 -8 -91 -97 -163 -239 -193 -89 -19 -326 -14
-433 10 -237 53 -435 154 -633 323 l-49 42 -197 -291 c-109 -159 -200 -296
-202 -303 -3 -8 23 -37 63 -70 269 -224 596 -355 980 -396 147 -15 500 -7 613
14 400 75 664 256 799 549 47 100 67 180 81 313 25 248 -42 479 -185 634 -175
188 -413 294 -900 400 -412 90 -505 124 -558 201 -36 53 -6 151 60 195 117 76
412 67 670 -21 134 -46 326 -150 401 -217 19 -18 24 -19 37 -6 7 8 104 138
214 289 l201 275 -33 28 c-125 107 -352 230 -538 291 -235 77 -558 112 -814
89z"/>
<path d="M9910 1630 l0 -1480 975 0 975 0 0 335 0 335 -590 0 -590 0 0 1145 0
1145 -385 0 -385 0 0 -1480z"/>
<path d="M12070 2148 c0 -1022 1 -1044 48 -1208 136 -471 511 -759 1082 -829
124 -16 430 -13 563 4 596 78 966 406 1073 950 16 82 18 181 21 1068 l4 977
-391 0 -390 0 0 -899 c0 -998 0 -992 -65 -1129 -67 -142 -213 -252 -380 -287
-38 -8 -114 -15 -167 -15 -197 0 -344 54 -457 167 -75 76 -112 145 -142 260
-18 73 -19 117 -19 990 l0 913 -390 0 -390 0 0 -962z"/>
<path d="M19117 3103 c-7 -11 -1099 -2914 -1105 -2935 -4 -17 21 -18 431 -18
l435 0 30 83 c16 45 48 139 72 210 l43 127 577 0 578 0 72 -210 72 -210 435 0
435 0 -6 22 c-3 13 -252 679 -553 1480 l-548 1458 -482 0 c-265 0 -484 -3
-486 -7z m667 -1312 c97 -288 176 -528 176 -532 0 -5 -162 -9 -360 -9 -198 0
-360 2 -360 4 0 3 340 1013 355 1055 3 8 7 12 9 10 3 -2 83 -240 180 -528z"/>
</g>
</svg>
